# xmcd
#
# Track frame offsets:
#	150
#	15730
#	31325
#
# Disc length: 625 seconds
#
# Revision: 0
# Processed by: cddbd v1.4PL0 Copyright (c) Steve Scherf et al.
# Submitted via: audiograbber 1.81.02
#
DISCID=19026f03
DTITLE=Jessica Andrews - There's more to me than you
DYEAR=1900
DGENRE=Country
TTITLE0=There's more to me than you ballad version
TTITLE1=blank
TTITLE2=also blank
EXTD=
EXTT0=
EXTT1=
EXTT2=
PLAYORDER=
